<?xml version="1.0" standalone="no"?>
<!DOCTYPE svg PUBLIC "-//W3C//DTD SVG 20010904//EN"
 "http://www.w3.org/TR/2001/REC-SVG-20010904/DTD/svg10.dtd">
<svg version="1.0" xmlns="http://www.w3.org/2000/svg"
 width="1080.000000pt" height="1080.000000pt" viewBox="0 0 1080.000000 1080.000000"
 preserveAspectRatio="xMidYMid meet">

<g transform="translate(0.000000,1080.000000) scale(0.100000,-0.100000)"
fill="#000000" stroke="none">
<path d="M5125 9570 c-1044 -77 -1990 -513 -2705 -1246 -334 -343 -570 -676
-776 -1098 -464 -946 -548 -2048 -234 -3066 111 -358 295 -748 503 -1060 77
-115 203 -287 219 -296 9 -6 658 632 658 647 0 4 -38 64 -85 134 -47 70 -85
132 -85 138 0 7 23 27 50 44 96 63 171 186 191 313 37 237 -128 471 -369 521
-53 11 -148 8 -213 -7 -26 -6 -27 -4 -48 83 -19 84 -52 257 -48 258 1 1 29 6
62 13 120 24 227 97 296 204 53 83 73 166 67 282 -6 118 -41 199 -123 285 -66
69 -136 109 -230 132 -81 19 -77 -3 -38 202 25 130 28 138 47 132 12 -3 51 -8
88 -12 335 -30 587 294 477 614 -35 101 -89 167 -209 253 -21 15 -20 17 70
153 50 76 97 140 105 143 8 3 29 -6 47 -19 123 -94 310 -107 464 -32 252 123
337 446 178 677 -14 20 -23 42 -19 48 9 15 245 170 259 170 6 0 25 -22 43 -49
86 -132 276 -216 433 -192 89 14 140 33 205 77 162 107 234 301 189 505 -6 26
-4 27 83 47 94 23 180 39 227 44 27 3 29 1 47 -71 54 -214 230 -351 449 -351
224 0 409 150 452 367 7 32 13 59 13 60 2 4 214 -36 270 -51 40 -10 49 -17 47
-32 -12 -87 -13 -178 -2 -225 44 -189 194 -329 384 -359 174 -28 356 52 446
194 19 30 38 55 42 56 11 0 282 -184 285 -195 2 -6 -202 -215 -452 -465 -420
-420 -456 -454 -475 -442 -71 44 -273 136 -375 171 -206 69 -338 92 -580 98
-166 4 -234 2 -325 -11 -432 -63 -821 -257 -1125 -561 -275 -275 -458 -616
-542 -1012 -26 -120 -27 -143 -27 -383 0 -239 2 -263 27 -381 39 -184 91 -333
174 -502 l75 -150 844 844 844 844 1302 -1302 1301 -1301 -79 -98 c-489 -604
-1196 -1021 -1954 -1153 -225 -39 -304 -45 -560 -46 -259 0 -365 8 -580 46
-455 80 -915 270 -1293 536 -77 54 -78 55 -99 37 -12 -11 -160 -158 -331 -329
l-309 -309 38 -33 c64 -54 295 -213 416 -286 161 -97 443 -236 624 -307 1101
-432 2335 -375 3394 155 412 206 743 447 1081 784 348 349 586 681 801 1116
571 1160 567 2533 -12 3692 -207 416 -430 728 -755 1062 -684 701 -1571 1131
-2550 1236 -174 19 -550 27 -710 15z m2802 -2126 c392 -485 618 -1023 705
-1684 20 -150 17 -596 -5 -760 -36 -267 -97 -513 -186 -748 -49 -130 -169
-392 -180 -392 -3 0 -223 217 -488 483 l-482 482 24 95 c56 223 72 534 39 759
-59 402 -228 758 -504 1062 l-73 81 449 449 449 450 86 -89 c47 -49 122 -134
166 -188z"/>
<path d="M4765 4104 c-346 -348 -632 -636 -634 -638 -13 -18 365 -208 514
-259 245 -84 472 -121 750 -121 319 -1 570 45 853 156 159 62 422 203 422 226
0 8 -1263 1272 -1270 1271 -3 0 -288 -286 -635 -635z"/>
</g>
</svg>
